<?xml version="1.0" encoding="UTF-8" standalone="no"?>
<!DOCTYPE svg PUBLIC "-//W3C//DTD SVG 1.1//EN"
 "http://www.w3.org/Graphics/SVG/1.1/DTD/svg11.dtd">
<!-- Generated by graphviz version 2.38.0 (20140413.2041)
 -->
<!-- Title: models_diagram Pages: 1 -->
<svg width="1761pt" height="235pt"
 viewBox="0.00 0.00 1761.00 235.00" xmlns="http://www.w3.org/2000/svg" xmlns:xlink="http://www.w3.org/1999/xlink">
<g id="graph0" class="graph" transform="scale(1 1) rotate(0) translate(4 231)">
<title>models_diagram</title>
<polygon fill="none" stroke="none" points="-4,4 -4,-231 1757,-231 1757,4 -4,4"/>
<!-- Scrapsite -->
<g id="node1" class="node"><title>Scrapsite</title>
<path fill="none" stroke="black" d="M12,-53C12,-53 232,-53 232,-53 238,-53 244,-59 244,-65 244,-65 244,-162 244,-162 244,-168 238,-174 232,-174 232,-174 12,-174 12,-174 6,-174 0,-168 0,-162 0,-162 0,-65 0,-65 0,-59 6,-53 12,-53"/>
<text text-anchor="middle" x="122" y="-158.8" font-family="Times,serif" font-size="14.00">Scrapsite</text>
<polyline fill="none" stroke="black" points="0,-151 244,-151 "/>
<text text-anchor="start" x="8" y="-135.8" font-family="Times,serif" font-size="14.00">id :integer</text>
<text text-anchor="start" x="8" y="-120.8" font-family="Times,serif" font-size="14.00">nehnutelnosti :boolean</text>
<text text-anchor="start" x="8" y="-105.8" font-family="Times,serif" font-size="14.00">bazos :boolean</text>
<text text-anchor="start" x="8" y="-90.8" font-family="Times,serif" font-size="14.00">created_at :timestamp without time zone</text>
<text text-anchor="start" x="8" y="-75.8" font-family="Times,serif" font-size="14.00">updated_at :timestamp without time zone</text>
<text text-anchor="start" x="8" y="-60.8" font-family="Times,serif" font-size="14.00">scrap_id :integer</text>
</g>
<!-- Flat -->
<g id="node2" class="node"><title>Flat</title>
<path fill="none" stroke="black" d="M274,-8C274,-8 510,-8 510,-8 516,-8 522,-14 522,-20 522,-20 522,-207 522,-207 522,-213 516,-219 510,-219 510,-219 274,-219 274,-219 268,-219 262,-213 262,-207 262,-207 262,-20 262,-20 262,-14 268,-8 274,-8"/>
<text text-anchor="middle" x="392" y="-203.8" font-family="Times,serif" font-size="14.00">Flat</text>
<polyline fill="none" stroke="black" points="262,-196 522,-196 "/>
<text text-anchor="start" x="270" y="-180.8" font-family="Times,serif" font-size="14.00">id :integer</text>
<text text-anchor="start" x="270" y="-165.8" font-family="Times,serif" font-size="14.00">name :character varying</text>
<text text-anchor="start" x="270" y="-150.8" font-family="Times,serif" font-size="14.00">content :text</text>
<text text-anchor="start" x="270" y="-135.8" font-family="Times,serif" font-size="14.00">price :character varying</text>
<text text-anchor="start" x="270" y="-120.8" font-family="Times,serif" font-size="14.00">date_of_scrap :timestamp without time zone</text>
<text text-anchor="start" x="270" y="-105.8" font-family="Times,serif" font-size="14.00">room :integer</text>
<text text-anchor="start" x="270" y="-90.8" font-family="Times,serif" font-size="14.00">date_of_creation :character varying</text>
<text text-anchor="start" x="270" y="-75.8" font-family="Times,serif" font-size="14.00">created_at :timestamp without time zone</text>
<text text-anchor="start" x="270" y="-60.8" font-family="Times,serif" font-size="14.00">updated_at :timestamp without time zone</text>
<text text-anchor="start" x="270" y="-45.8" font-family="Times,serif" font-size="14.00">favourite :boolean</text>
<text text-anchor="start" x="270" y="-30.8" font-family="Times,serif" font-size="14.00">hidden :boolean</text>
<text text-anchor="start" x="270" y="-15.8" font-family="Times,serif" font-size="14.00">scrap_id :integer</text>
</g>
<!-- Comment -->
<g id="node3" class="node"><title>Comment</title>
<path fill="none" stroke="black" d="M552.5,-53C552.5,-53 803.5,-53 803.5,-53 809.5,-53 815.5,-59 815.5,-65 815.5,-65 815.5,-162 815.5,-162 815.5,-168 809.5,-174 803.5,-174 803.5,-174 552.5,-174 552.5,-174 546.5,-174 540.5,-168 540.5,-162 540.5,-162 540.5,-65 540.5,-65 540.5,-59 546.5,-53 552.5,-53"/>
<text text-anchor="middle" x="678" y="-158.8" font-family="Times,serif" font-size="14.00">Comment</text>
<polyline fill="none" stroke="black" points="540.5,-151 815.5,-151 "/>
<text text-anchor="start" x="548.5" y="-135.8" font-family="Times,serif" font-size="14.00">id :integer</text>
<text text-anchor="start" x="548.5" y="-120.8" font-family="Times,serif" font-size="14.00">content :text</text>
<text text-anchor="start" x="548.5" y="-105.8" font-family="Times,serif" font-size="14.00">date_of_creation :timestamp without time zone</text>
<text text-anchor="start" x="548.5" y="-90.8" font-family="Times,serif" font-size="14.00">created_at :timestamp without time zone</text>
<text text-anchor="start" x="548.5" y="-75.8" font-family="Times,serif" font-size="14.00">updated_at :timestamp without time zone</text>
<text text-anchor="start" x="548.5" y="-60.8" font-family="Times,serif" font-size="14.00">user_id :integer</text>
</g>
<!-- User -->
<g id="node4" class="node"><title>User</title>
<path fill="none" stroke="black" d="M845.5,-0.5C845.5,-0.5 1134.5,-0.5 1134.5,-0.5 1140.5,-0.5 1146.5,-6.5 1146.5,-12.5 1146.5,-12.5 1146.5,-214.5 1146.5,-214.5 1146.5,-220.5 1140.5,-226.5 1134.5,-226.5 1134.5,-226.5 845.5,-226.5 845.5,-226.5 839.5,-226.5 833.5,-220.5 833.5,-214.5 833.5,-214.5 833.5,-12.5 833.5,-12.5 833.5,-6.5 839.5,-0.5 845.5,-0.5"/>
<text text-anchor="middle" x="990" y="-211.3" font-family="Times,serif" font-size="14.00">User</text>
<polyline fill="none" stroke="black" points="833.5,-203.5 1146.5,-203.5 "/>
<text text-anchor="start" x="841.5" y="-188.3" font-family="Times,serif" font-size="14.00">id :integer</text>
<text text-anchor="start" x="841.5" y="-173.3" font-family="Times,serif" font-size="14.00">email :character varying</text>
<text text-anchor="start" x="841.5" y="-158.3" font-family="Times,serif" font-size="14.00">encrypted_password :character varying</text>
<text text-anchor="start" x="841.5" y="-143.3" font-family="Times,serif" font-size="14.00">reset_password_token :character varying</text>
<text text-anchor="start" x="841.5" y="-128.3" font-family="Times,serif" font-size="14.00">reset_password_sent_at :timestamp without time zone</text>
<text text-anchor="start" x="841.5" y="-113.3" font-family="Times,serif" font-size="14.00">remember_created_at :timestamp without time zone</text>
<text text-anchor="start" x="841.5" y="-98.3" font-family="Times,serif" font-size="14.00">sign_in_count :integer</text>
<text text-anchor="start" x="841.5" y="-83.3" font-family="Times,serif" font-size="14.00">current_sign_in_at :timestamp without time zone</text>
<text text-anchor="start" x="841.5" y="-68.3" font-family="Times,serif" font-size="14.00">last_sign_in_at :timestamp without time zone</text>
<text text-anchor="start" x="841.5" y="-53.3" font-family="Times,serif" font-size="14.00">current_sign_in_ip :inet</text>
<text text-anchor="start" x="841.5" y="-38.3" font-family="Times,serif" font-size="14.00">last_sign_in_ip :inet</text>
<text text-anchor="start" x="841.5" y="-23.3" font-family="Times,serif" font-size="14.00">created_at :timestamp without time zone</text>
<text text-anchor="start" x="841.5" y="-8.3" font-family="Times,serif" font-size="14.00">updated_at :timestamp without time zone</text>
</g>
<!-- Scrap -->
<g id="node5" class="node"><title>Scrap</title>
<path fill="none" stroke="black" d="M1177,-0.5C1177,-0.5 1479,-0.5 1479,-0.5 1485,-0.5 1491,-6.5 1491,-12.5 1491,-12.5 1491,-214.5 1491,-214.5 1491,-220.5 1485,-226.5 1479,-226.5 1479,-226.5 1177,-226.5 1177,-226.5 1171,-226.5 1165,-220.5 1165,-214.5 1165,-214.5 1165,-12.5 1165,-12.5 1165,-6.5 1171,-0.5 1177,-0.5"/>
<text text-anchor="middle" x="1328" y="-211.3" font-family="Times,serif" font-size="14.00">Scrap</text>
<polyline fill="none" stroke="black" points="1165,-203.5 1491,-203.5 "/>
<text text-anchor="start" x="1173" y="-188.3" font-family="Times,serif" font-size="14.00">id :integer</text>
<text text-anchor="start" x="1173" y="-173.3" font-family="Times,serif" font-size="14.00">city :character varying</text>
<text text-anchor="start" x="1173" y="-158.3" font-family="Times,serif" font-size="14.00">part_of_town :character varying</text>
<text text-anchor="start" x="1173" y="-143.3" font-family="Times,serif" font-size="14.00">room_count :integer</text>
<text text-anchor="start" x="1173" y="-128.3" font-family="Times,serif" font-size="14.00">keywords :text</text>
<text text-anchor="start" x="1173" y="-113.3" font-family="Times,serif" font-size="14.00">price_min :integer</text>
<text text-anchor="start" x="1173" y="-98.3" font-family="Times,serif" font-size="14.00">price_max :integer</text>
<text text-anchor="start" x="1173" y="-83.3" font-family="Times,serif" font-size="14.00">last_search_time :timestamp without time zone</text>
<text text-anchor="start" x="1173" y="-68.3" font-family="Times,serif" font-size="14.00">number_of_results :integer</text>
<text text-anchor="start" x="1173" y="-53.3" font-family="Times,serif" font-size="14.00">time_of_result_expiration :timestamp without time zone</text>
<text text-anchor="start" x="1173" y="-38.3" font-family="Times,serif" font-size="14.00">created_at :timestamp without time zone</text>
<text text-anchor="start" x="1173" y="-23.3" font-family="Times,serif" font-size="14.00">updated_at :timestamp without time zone</text>
<text text-anchor="start" x="1173" y="-8.3" font-family="Times,serif" font-size="14.00">user_id :integer</text>
</g>
<!-- Userdetail -->
<g id="node6" class="node"><title>Userdetail</title>
<path fill="none" stroke="black" d="M1521,-53C1521,-53 1741,-53 1741,-53 1747,-53 1753,-59 1753,-65 1753,-65 1753,-162 1753,-162 1753,-168 1747,-174 1741,-174 1741,-174 1521,-174 1521,-174 1515,-174 1509,-168 1509,-162 1509,-162 1509,-65 1509,-65 1509,-59 1515,-53 1521,-53"/>
<text text-anchor="middle" x="1631" y="-158.8" font-family="Times,serif" font-size="14.00">Userdetail</text>
<polyline fill="none" stroke="black" points="1509,-151 1753,-151 "/>
<text text-anchor="start" x="1517" y="-135.8" font-family="Times,serif" font-size="14.00">id :integer</text>
<text text-anchor="start" x="1517" y="-120.8" font-family="Times,serif" font-size="14.00">nick :character varying</text>
<text text-anchor="start" x="1517" y="-105.8" font-family="Times,serif" font-size="14.00">notifications_allowed :boolean</text>
<text text-anchor="start" x="1517" y="-90.8" font-family="Times,serif" font-size="14.00">created_at :timestamp without time zone</text>
<text text-anchor="start" x="1517" y="-75.8" font-family="Times,serif" font-size="14.00">updated_at :timestamp without time zone</text>
<text text-anchor="start" x="1517" y="-60.8" font-family="Times,serif" font-size="14.00">user_id :integer</text>
</g>
</g>
</svg>
